# xmcd
#
# Track frame offsets: 
#        150
#        15095
#        35135
#
# Disc length: 645 seconds
#
# Revision: 0
# Processed by: cddbd v1.5.2PL0 Copyright (c) Steve Scherf et al.
# Submitted via: ExactAudioCopy v0.95b4
#
DISCID=17028303
DTITLE=Eric Clapton - 1994 - It Hurts Me Too
DYEAR=1994
DGENRE=Blues
TTITLE0=It Hurts Me Too
TTITLE1=Someday After A While
TTITLE2=Blues Before Sunrise
EXTD=
EXTT0=
EXTT1=
EXTT2=
PLAYORDER=
